PathFileType	4	(X/Y/Z)	./resultDataOpenSim/trcMotMarkerGrf/sub06/qtm-14-08.trc
DataRate	CameraRate	NumFrames	NumMarkers	Units	OrigDataRate	OrigDataStartFrame	OrigNumFrames
250.000000	250.000000	12	24	m	250.000000	1	527
Frame#	Time	L.Toe.Tip			R.Toe.Tip			L.Ankle.Lat			R.Ankle.Lat			L.Ankle.Med			R.Ankle.Med			L.Heel			R.Heel			L.Knee.Lat			R.Knee.Lat			L.Knee.Med			R.Knee.Med			L.Thigh.Upper			R.Thigh.Upper			L.ASIS			R.ASIS			V.Sacral			L.Acromium			R.Acromium			C7			L.Elbow			R.Elbow			L.Wrist.Lat			R.Wrist.Lat
		X1	Y1	Z1	X2	Y2	Z2	X3	Y3	Z3	X4	Y4	Z4	X5	Y5	Z5	X6	Y6	Z6	X7	Y7	Z7	X8	Y8	Z8	X9	Y9	Z9	X10	Y10	Z10	X11	Y11	Z11	X12	Y12	Z12	X13	Y13	Z13	X14	Y14	Z14	X15	Y15	Z15	X16	Y16	Z16	X17	Y17	Z17	X18	Y18	Z18	X19	Y19	Z19	X20	Y20	Z20	X21	Y21	Z21	X22	Y22	Z22	X23	Y23	Z23	X24	Y24	Z24

1	0	-1.5476057	0.03296055	-0.079957402	-1.1019714	0.081628549	0.11752417	-1.6724241	0.068321776	-0.091857733	-1.2328642	0.077159257	0.12130458	-1.6613008	0.080259939	-0.0074185434	-1.2138737	0.10387348	0.038143846	NaN	NaN	NaN	-1.2741637	0.041721504	0.047867604	-1.5412363	0.41723441	-0.11020323	-1.2702765	0.46606828	0.13703117	-1.5588327	0.42231609	0.009242009	-1.2846587	0.44749143	0.0084915531	-1.4603638	0.79733725	-0.17801115	-1.4575143	0.79453919	0.17168013	-1.3817341	0.83985723	-0.13341119	-1.3748018	0.84917248	0.1124953	-1.5589748	0.92458396	0.002663736	-1.4020195	1.3285772	-0.19280563	-1.4243334	1.3152984	0.16707437	-1.4858851	1.3624149	-0.016319361	-1.4129036	1.0064274	-0.26960319	-1.5610961	1.0327903	0.23798592	-1.202449	0.87273265	-0.23284611	-1.4604453	0.8097423	0.27219059
2	0.004	-1.5475861	0.032917116	-0.079988277	-1.0861843	0.084963843	0.11719524	-1.6721862	0.068458802	-0.091947203	-1.2170863	0.077046466	0.12162949	-1.6608868	0.080475202	-0.0074287302	-1.1991089	0.10431355	0.03829152	NaN	NaN	NaN	-1.257669	0.040546092	0.048404593	-1.5392935	0.41650678	-0.11045977	-1.2642064	0.46478695	0.13654092	-1.5556129	0.42176809	0.008882131	-1.2782831	0.44587378	0.0079016028	-1.4559601	0.79593033	-0.17817174	-1.4531876	0.79274294	0.17134173	-1.3768062	0.83830414	-0.13379934	-1.3689216	0.8475702	0.11242835	-1.5523592	0.92269116	0.0016839764	-1.3964773	1.3270093	-0.19273344	-1.4191459	1.3135954	0.16733857	-1.4804289	1.3610253	-0.01625071	-1.4049965	1.0048954	-0.269203	-1.5569998	1.0317166	0.23722893	-1.1942654	0.87280893	-0.23112542	-1.4592542	0.80764712	0.27247778
3	0.008	-1.547549	0.032872326	-0.080029886	-1.0705599	0.088453182	0.11680644	-1.6719689	0.068596868	-0.0919778	-1.2013584	0.077060849	0.12194369	-1.6604613	0.080684506	-0.0074287684	-1.184415	0.10481285	0.03843563	NaN	NaN	NaN	-1.2412628	0.039472429	0.048902406	-1.5373078	0.41576289	-0.11071744	-1.2582186	0.46344415	0.13608523	-1.5528524	0.42117483	0.0086253023	-1.2719594	0.44422214	0.0073138083	-1.4515783	0.79454303	-0.17829874	-1.4485423	0.79092362	0.17105981	-1.3718822	0.83673969	-0.13418171	-1.3629654	0.845943	0.1123352	-1.5457832	0.92082027	0.00077366653	-1.3909054	1.3254158	-0.19261794	-1.4139693	1.311889	0.16761243	-1.4749535	1.3596362	-0.016096307	-1.3972433	1.0032923	-0.26884309	-1.5528346	1.030611	0.236461	-1.1861132	0.87284608	-0.22941406	-1.458023	0.80555258	0.27274102
4	0.012	-1.5474345	0.032834035	-0.080134491	-1.0552073	0.092166843	0.11634926	-1.6717669	0.068736904	-0.091948129	-1.1857058	0.07728663	0.12224369	-1.6600484	0.080883219	-0.0074141339	-1.1698147	0.10544409	0.038556384	NaN	NaN	NaN	-1.2250121	0.038561402	0.049337604	-1.5352497	0.41498818	-0.11097184	-1.2522954	0.46202216	0.13568781	-1.5505448	0.42050651	0.0084813283	-1.2657009	0.44250939	0.00673728	-1.4472228	0.79318153	-0.17840399	-1.4430443	0.78914348	0.17099232	-1.3669692	0.8351402	-0.13457045	-1.3569048	0.84427311	0.11220986	-1.5394268	0.9190672	0.0002247413	-1.385278	1.3237749	-0.19244651	-1.4087969	1.3101725	0.16790249	-1.4694429	1.3582392	-0.01585484	-1.3896435	1.0016046	-0.26851041	-1.5485506	1.0294526	0.23567432	-1.1779878	0.87281733	-0.22769758	-1.45677	0.80345386	0.27296306
5	0.016	-1.5471594	0.032814606	-0.08037776	-1.0402016	0.096068918	0.11583245	-1.6715624	0.068882692	-0.091896417	-1.1702103	0.077737855	0.12252768	-1.6597252	0.081070897	-0.0073810881	-1.1553395	0.10625631	0.038635974	NaN	NaN	NaN	-1.2089974	0.037836222	0.04971108	-1.5331083	0.41418687	-0.11120998	-1.2463531	0.46055683	0.13535422	-1.5483778	0.41975911	0.008399126	-1.2595062	0.44072755	0.0061908616	-1.4428849	0.79182364	-0.17849877	-1.4362224	0.78751284	0.17128809	-1.3620747	0.83350098	-0.1349743	-1.3507546	0.84255898	0.11205894	-1.533393	0.9174859	0.00018698239	-1.3796036	1.3220885	-0.19223654	-1.4036246	1.3084433	0.16821004	-1.4639089	1.3568186	-0.015598985	-1.3821199	0.99986744	-0.26819213	-1.5441336	1.0282363	0.23486712	-1.1698854	0.87271265	-0.22595804	-1.4555409	0.80135429	0.27314422
6	0.02	-1.5467179	0.032816601	-0.080766678	-1.0255821	0.10006291	0.11528036	-1.6713476	0.069046413	-0.091852345	-1.155002	0.078366809	0.12278618	-1.6595467	0.0812621	-0.0073324187	-1.1410706	0.10723507	0.038674953	NaN	NaN	NaN	-1.193303	0.03730236	0.050033618	-1.5308794	0.41337531	-0.11141973	-1.2403499	0.45908682	0.13506589	-1.5460984	0.41895212	0.0083357611	-1.2533769	0.43888424	0.0056901533	-1.4385465	0.79044861	-0.1785595	-1.4283317	0.78604119	0.17186784	-1.3571595	0.83184596	-0.13537	-1.3445387	0.84081286	0.1118823	-1.5275784	0.91602624	0.00048979786	-1.3739107	1.3203822	-0.19200913	-1.398447	1.3067012	0.16853357	-1.4583725	1.3553568	-0.015395114	-1.3746176	0.99811658	-0.26790113	-1.5395835	1.0269642	0.23404009	-1.1618209	0.87253334	-0.22419835	-1.4543098	0.79927408	0.27330598
7	0.024	-1.5462819	0.032826146	-0.081155353	-1.0113809	0.1040406	0.11475092	-1.671123	0.069244995	-0.091820574	-1.1401934	0.079109125	0.12300218	-1.6594581	0.081483409	-0.0072873846	-1.1271339	0.10832145	0.038680788	NaN	NaN	NaN	-1.1780161	0.036957628	0.050305275	-1.5285613	0.41256141	-0.11160553	-1.2343186	0.45762135	0.13479362	-1.5436165	0.418117	0.0082692882	-1.2473203	0.43700108	0.0052360925	-1.4341864	0.78906017	-0.17856827	-1.4203618	0.78458701	0.17244903	-1.3521571	0.83020308	-0.135725	-1.3382918	0.83904643	0.11167173	-1.52184	0.91461478	0.00090481836	-1.3682264	1.3186815	-0.19177315	-1.3932575	1.3049512	0.16887329	-1.4528425	1.353853	-0.015252143	-1.3671224	0.99637226	-0.26763777	-1.5349006	1.0256389	0.23319383	-1.1538299	0.87228497	-0.22244071	-1.4529741	0.79724993	0.27347387
8	0.028	-1.5461051	0.032823096	-0.081332413	-0.99761802	0.10792809	0.11427802	-1.670885	0.069488941	-0.091790719	-1.1258277	0.079924381	0.12315896	-1.6593464	0.08174905	-0.0072677699	-1.1136064	0.10947079	0.038655133	NaN	NaN	NaN	-1.1631458	0.03679604	0.050508505	-1.5261478	0.41174505	-0.11178847	-1.2282967	0.45615655	0.13452012	-1.5409412	0.41727562	0.0081946964	-1.2413314	0.43510872	0.0048198191	-1.4297846	0.78765122	-0.17851023	-1.4130903	0.78300041	0.17281747	-1.3470556	0.82858526	-0.13605198	-1.3320401	0.83726038	0.11142124	-1.5161064	0.91321121	0.0013247499	-1.3625641	1.3169942	-0.19152767	-1.3880539	1.3032062	0.16922965	-1.4473116	1.3523246	-0.015133454	-1.3596361	0.99464592	-0.26738146	-1.5300809	1.0242614	0.23232763	-1.1459393	0.87197311	-0.22069832	-1.4514659	0.79531244	0.27365485
9	0.032	-1.546252	0.032796859	-0.081245505	-0.984277	0.11171218	0.1138178	-1.6706288	0.069780108	-0.091749613	-1.1119088	0.080788107	0.12324028	-1.6591861	0.082041386	-0.007262263	-1.1004889	0.11066896	0.038597693	NaN	NaN	NaN	-1.1485517	0.036809893	0.050614713	-1.523629	0.41092967	-0.11198421	-1.2222868	0.45469463	0.13424613	-1.5380902	0.41643646	0.0081179559	-1.2353835	0.43323107	0.0044314623	-1.4253445	0.78619921	-0.17831134	-1.4065052	0.78125911	0.17296474	-1.3419115	0.82698778	-0.13641082	-1.3257769	0.83545133	0.11113024	-1.5103573	0.91180889	0.0017449939	-1.3569196	1.3153136	-0.19127008	-1.382841	1.3014814	0.16960137	-1.4417625	1.3507917	-0.014984033	-1.3521606	0.9929434	-0.26711017	-1.525116	1.02283	0.23143898	-1.1381428	0.87160363	-0.2189585	-1.4498215	0.79345565	0.27383299
10	0.036	-1.5465244	0.032751612	-0.081054079	-0.97130119	0.11543049	0.11326673	-1.6703574	0.070119027	-0.091690388	-1.0984501	0.081665336	0.12322382	-1.6591748	0.082299461	-0.0071811032	-1.0877733	0.11190105	0.03850625	NaN	NaN	NaN	-1.1341186	0.036980481	0.050622263	-1.5210043	0.41012134	-0.11218652	-1.2162642	0.45324497	0.13398709	-1.5350463	0.41561341	0.0080417523	-1.2294438	0.43137465	0.0040657053	-1.4208987	0.78472073	-0.17788609	-1.4001819	0.77943931	0.17299664	-1.3367707	0.82539561	-0.13683641	-1.3194782	0.83362074	0.11080111	-1.5045874	0.91041651	0.0021990757	-1.3512791	1.3136315	-0.19100034	-1.3776221	1.2997835	0.1699902	-1.4361761	1.3492661	-0.014751536	-1.3446964	0.99126267	-0.26680344	-1.5199955	1.0213424	0.23052443	-1.1304188	0.87118517	-0.21720461	-1.4481189	0.79163759	0.27398421
11	0.04	-1.5467058	0.032697978	-0.080929413	-0.95864686	0.11910381	0.11253511	-1.6700715	0.070507805	-0.091620494	-1.0854884	0.082512208	0.1230854	-1.6598035	0.082410874	-0.0068332403	-1.0754778	0.11313002	0.038366896	NaN	NaN	NaN	-1.1200021	0.037259036	0.050565055	-1.5182854	0.40932557	-0.11237758	-1.2101954	0.45181717	0.13376236	-1.5318155	0.41482215	0.0079715191	-1.2234901	0.4295396	0.0037277592	-1.4164617	0.78327624	-0.1772869	-1.3938431	0.77761025	0.17300428	-1.3316233	0.82380413	-0.13726905	-1.3131302	0.83177684	0.1104383	-1.4987927	0.90904247	0.0027164232	-1.3456329	1.3119467	-0.1907176	-1.3723841	1.2981049	0.17039661	-1.4305458	1.3477487	-0.014421204	-1.3372443	0.98959795	-0.26644344	-1.5147147	1.0197988	0.22958408	-1.1227606	0.87072845	-0.21544377	-1.446408	0.78981031	0.27408877
12	0.044	-1.5467487	0.032642263	-0.08090947	-0.94638007	0.12262651	0.11165299	-1.6697376	0.070947183	-0.091565144	-1.0730647	0.083292638	0.12281708	-1.6615314	0.082291252	-0.0060574574	-1.0636349	0.11430394	0.03815912	NaN	NaN	NaN	-1.1065155	0.037574379	0.050437219	-1.5154803	0.40855046	-0.112546	-1.2040374	0.45042583	0.13357904	-1.5284633	0.41406279	0.007921279	-1.2175119	0.4277382	0.003427647	-1.4119922	0.78189372	-0.1767067	-1.3874722	0.77579441	0.17301404	-1.3264326	0.82223145	-0.13758261	-1.306737	0.82992524	0.11004741	-1.4929721	0.90769124	0.0033088284	-1.3399785	1.3102677	-0.19042058	-1.3670961	1.2964291	0.17081339	-1.4248864	1.3462334	-0.014041969	-1.3298104	0.98795095	-0.26603481	-1.5092882	1.0182102	0.22863066	-1.1151737	0.87024098	-0.2136999	-1.4447094	0.78794886	0.27413431
